<mxfile host="65bd71144e">
    <diagram id="HIP3nbAZw_EuaXWnEj3U" name="Page-1">
        <mxGraphModel dx="911" dy="794" grid="1" gridSize="10" guides="1" tooltips="1" connect="1" arrows="1" fold="1" page="1" pageScale="1" pageWidth="850" pageHeight="1100" math="0" shadow="0">
            <root>
                <mxCell id="0"/>
                <mxCell id="1" parent="0"/>
                <mxCell id="7" value="http://ics2o.mths.ca" style="swimlane;whiteSpace=wrap;html=1;" parent="1" vertex="1">
                    <mxGeometry x="130" y="57" width="550" height="450" as="geometry"/>
                </mxCell>
                <mxCell id="22" value="" style="shape=image;verticalLabelPosition=bottom;labelBackgroundColor=default;verticalAlign=top;aspect=fixed;imageAspect=0;image=data:image/png,iVBORw0KGgoAAAANSUhEUgAAAQAAAAEACAYAAABccqhmAAAAAXNSR0IArs4c6QAACgxJREFUeJzt3V2SnbYWBlDsyqPtifYEeggZwPVAY/s17vvgonyC4TQ/QtrSXqsqlYpz3ByE9CE2iP7w6Z+3twlI6WPrLwC0IwAgMQEAiQkASEwAQGICABITAJCYAIDEBAAkJgAgMQEAiQkASEwAQGICABITAJCYAIDEBAAkJgAgMQEAiQkASEwAQGICABITAJCYAIDEBAAkJgAgMQEAiQkASEwAQGICABITAJCYAIDEBAAkJgAgMQEAiQkASEwAQGICABITAJCYAIDEBAAkJgAgMQEAiQkASOzD//59e2v9JYA2zAAgMQEAiQkASOzDp3/UACArMwBITABAYgIAEhMAkJgAgMQEACQmACAxAQCJCQBIzGpASMwMABKzFgASMwOAxAQAJCYAIDF3ASAxMwBITABAYgIAEhMAkJgAgMQEACQmACAxAQCJCQBITABAYgIAEhMAkJgAgMQEACQmACAxAQCJCQBITABAYgIAEhMAkJgAgMQEACQmACAxAQCJCQBITABAYgIAEhMAkJgAgMQ+vL39+duBv/5s8VWo5WUj9h33cW0d89UAeKRTjGGrA2xx3Pu355i/GwDTpDP07ujgny2P+/Ln6Bdx7T3muwJg5oD35ezAP0q/iOPoMT8UANPkYEfy7Ixca/Avt62+0M6ZY/5X+a/B3bYO9PznLQbbe53v8f8LgzgOzwCmyQFsqfaZ/S76UFln+8WpvzZKJ6Sdl4/6USlX2tElQEdGHDAvH80G9rrj+AsACOzu0D/940c8G0U2cnuPvG9X1GgXM4DAMg0MDxn9VvO4J+pifck0+NdkLRLW3ueETRxb1o6/JVNbtNjXS5vMdHBq0J7UdrnLOWNxtwz9q9U+FtusILhG2+XV8tgX37QgOE570cqptQBHZL6ds5cA2K/n/hTxON/+lSLuNP3qtT9F/d63zwBmPSf3naJ2jB700qciH+NqATDr5aDVErlz9CDiuw+m6f0XpERR/VFgq7/o0dGBHH3gz6rPAGZC4JdeOkpkz/rS1VeUjX58LAaie8tZ5Z5Bu+cVZaMP/mlquBYgQ+NS35l+tfZ3svTPZpcAM5cCeTpbD77+zHU8mu9qpsYmvmz9MdnuAo+aXwJsyXZpkO3MQwxhA+DRiGFgwBNBFwEwTWOEgEFPNN0EwKzXIDD4iai7AJimvkLAwCcy3fNGBj/RddlFDSwoo9uhFD0Eon8/mKaOAyAyg59e6KqQWNfLgVu/XMTvs6N3XQdAK1tTfFN/etPlcwBbapyBDXJGMlR39ktJ4JihZgCPzs4Gnr1DTrgwGjWA6fg75GAUw3brvQPWwCaztDMAAx8GngE8Y/DDL0MPBQMdnhv2LsBSL7+rDWpKEwDAn5wPITEBAIkJAEhMAEBiAgASEwCQmACAxAQAJCYAIDEBAIkJAEhMAEBiAgASEwCQmACAxAQAJCYAoJAefzekAIDEBAAkJgAgMQEAiQkASMxrweGiI9X/aL+XItjXgbFFu1UoACAxAQCJCQBITABAYu4CwAVXi3qt7wqYAcBJJSr6re8K/NV28xDX1uBsfdYuaaBd6VPrMwDrnh2XkY6ZACCVrz/HGsBXCQDSeBz474XAs2m+SwAYwOdvrb9Be4qApHbmcmCkS4hbZwASFmJzCdDQfCYZ6YxCXwRAI8tBLwRoQQA8cdeg3Pq5QoDaBMAG0/Oxvf7477+zEgArDPqxvf6Ypu9ffv9TOgR6CpVLtwH3VPnnz3z/cmVL9Rj8MXz+dk+fmQf/o+9ffm3v70/ltxfd6QA4coB6uR1o8Mcw9627QmD29edYT/WdEe5BoCuPaN653Vrbyd4p7x70s8caT+b2vhwAc0O+fFzv3D00bpTB//i5HtqttFqDf5r+e53+0snl6R3CzQBqOzL4a3bQbGq27XJbRy9R9xT55s9ErysUDYDezlqu+WN4HJCPM8rH/97rWR9cKwBO0+8/21MI3PoZa3qofR0KgOUOPf73646/WyLhS3YI2lsb/FdsXT4t+9/jtubPt7wb0Kr2tTsASgzgFlPorNfTPVj2h1rHae0x7KPbHqH2NU0nLgHOpvSyQbamR9GvmSjjvTN/LwOod02KgM+ujV5/9BkC6gnnjNBuPYdVl3cBWlRY59Bau4wZoRO30mLwLKft732HZdX/SO2r1AntrtpXkwDYesrraBW2VsFm7bZRycLVyN67vq796u35+yx//tb3PFL139KisLi3rnE4AO44MJELdc+eHb/rWfUeL4FaWp6h3zsrT9OxGcDy80csf/baMwSvU7tjXr0I+Dh9WptKRV5JdXdQzWHz+Vvup9OO2HuGjnBP/lnfbhX81S8Ben2Sruaz4zUWwkRxpS0fB/+zE1PU2eVRd9S+mtQAlgfr2b3UI39+p9rPjmcJgRI1gF7qMH9/Wp+xtKx9dXkXoLarz46flSUErqpxhh+19hWiCBhViWfHz3h8yqznEKh12VTjMdqrta/HGWSk2leTJwHXDsjWQXr253uqvWctB3+LZ8fngdNjCOx93DbLCSXqsVMD2KHEs+NHrP3sO0Lgrv149tbjtfvva458r15CJGK/VwMIaOvglwyBkd6I02ol3QgEQCdKDtRequaRjBoiTYqAPdQAlts6+uTY1e3dJdrgv6s/lTZq7atJETDitdCWo8+Ol9rmmqvbizb4p6nOcwBRzt4R+71LgJ2ezQD23MJp/Xx/lBefjlBzGIkAKGDvs+itQiDK4D/6ub0EynlNAiDitdBV7z2LfuSZgZIdOuK0/1GNh3Si1Bki9vsmRcCI10J3OjrtLVUD6KGNar8P4KxRa1/N3gk4mtH3LzJtf54aQCG9VKJHpO3PUwMIKFOHzb6vrfu9tQCF1CjctRwsd7V3L2sBRq19WQ5cyMjT0Ghhu9TDcuCoFAF5Kvrg5xo1gEJKBlymsIxyj76GiP1eDaCQktPQiDWAu1gL8OfnQtcAIKMoIVKaImAh2qWdXpYDR+SdgIWUnIZG7zQl9bIWoISI/V4NICA1gBz7GqHfqwEUMmKH7YW2P08AFNLLNHREvSwHjsg7AQMatbOt6WVfR619eSdgIaOvBbhLL2sBSojY710CFOISoB1tf56mgcSsBSjEWoBzeinQjVr78k7AQqwFOKeXtQCj1r4sB4bEFAELEXDtaPvz1AAKsRbgHGsB9n92/nNrAQLWAEpSA4i3r6PWviwHLkS7tGM58HmKgIX0Mg0dkbY/Tw0goEwdNvu+tu73agCFWAtwjrUAf34udA2Adaah7VgOfJ4iIOwwau3LOwELsRbgnExn54j9Xg2gEGsBzullLUAJEft9kKYBWlAELCTKWSajXpYDR+SdgIVYC3BOL2sBRq19eSdgQGoAOfY1Qr93CVDIiB22F9r+PAFQSC+V6BFp+/OsBQgoU4ftZV9HrX15J2Ah1gKc08tagFFrX/8HLc0zsn6KmH8AAAAASUVORK5CYII=;clipPath=inset(22.66% 0% 0.39% 0%);" vertex="1" parent="7">
                    <mxGeometry y="26" width="550" height="423.24218750000006" as="geometry"/>
                </mxCell>
            </root>
        </mxGraphModel>
    </diagram>
</mxfile>